<?xml version="1.0" standalone="no"?>
<!DOCTYPE svg PUBLIC "-//W3C//DTD SVG 20010904//EN"
 "http://www.w3.org/TR/2001/REC-SVG-20010904/DTD/svg10.dtd">
<svg version="1.0" xmlns="http://www.w3.org/2000/svg"
 width="200.000000pt" height="200.000000pt" viewBox="0 0 200.000000 200.000000"
 preserveAspectRatio="xMidYMid meet">
<metadata>
Created by potrace 1.15, written by Peter Selinger 2001-2017
</metadata>
<g transform="translate(0.000000,200.000000) scale(0.100000,-0.100000)"
fill="#000000" stroke="none">
<path d="M877 1346 c-139 -61 -267 -137 -267 -159 0 -29 38 -18 150 44 227
126 253 127 482 20 86 -40 162 -71 169 -69 17 6 -208 141 -288 174 -85 35
-149 32 -246 -10z"/>
<path d="M487 1110 c-160 -6 -189 -11 -173 -27 4 -4 140 -9 302 -11 289 -4
294 -4 294 16 0 12 -9 22 -22 26 -27 7 -166 5 -401 -4z"/>
<path d="M532 1018 c-7 -7 -12 -22 -12 -35 0 -13 -4 -23 -10 -23 -5 0 -10 -9
-10 -20 0 -11 5 -20 10 -20 6 0 10 -28 10 -65 0 -63 1 -65 25 -65 24 0 25 2
25 65 0 58 2 65 20 65 15 0 20 7 20 25 0 19 -5 25 -21 25 -11 0 -17 5 -14 10
4 6 14 9 23 8 11 -2 18 5 20 20 3 20 -1 22 -35 22 -22 0 -44 -5 -51 -12z"/>
<path d="M1305 980 c-3 -11 -11 -20 -16 -20 -5 0 -9 -9 -9 -20 0 -11 5 -20 10
-20 6 0 10 -24 10 -54 0 -62 14 -79 62 -74 26 2 34 8 36 26 3 20 0 23 -20 20
-21 -3 -23 1 -26 40 -3 37 -1 42 17 42 16 0 21 6 21 25 0 18 -5 25 -20 25 -11
0 -20 7 -20 15 0 22 -38 18 -45 -5z"/>
<path d="M641 961 c-21 -13 -5 -43 21 -41 36 3 48 1 48 -10 0 -5 -16 -10 -35
-10 -42 0 -69 -34 -59 -74 7 -30 21 -35 92 -34 l52 0 0 73 c0 54 -4 78 -16 89
-17 17 -80 21 -103 7z"/>
<path d="M773 958 c3 -7 17 -48 32 -90 24 -71 29 -78 53 -78 25 0 30 7 55 78
33 94 33 102 2 102 -21 0 -27 -7 -37 -45 -7 -25 -15 -45 -19 -45 -3 0 -12 20
-19 45 -11 40 -16 45 -42 45 -20 0 -28 -4 -25 -12z"/>
<path d="M971 944 c-28 -36 -28 -102 0 -133 17 -18 30 -21 67 -19 40 3 47 6
50 26 3 21 1 23 -30 17 -25 -5 -38 -2 -47 9 -12 14 -8 16 38 16 l51 0 0 33 c0
70 -87 104 -129 51z"/>
<path d="M1142 950 c-17 -16 -22 -32 -22 -70 0 -69 24 -92 88 -88 40 3 47 6
50 26 3 21 1 23 -30 17 -25 -5 -38 -2 -47 9 -12 14 -8 16 38 16 49 0 51 1 51
29 0 15 -9 40 -21 55 -26 33 -75 35 -107 6z"/>
</g>
</svg>
