<?xml version="1.0" encoding="iso-8859-1"?>
<!-- Generator: Adobe Illustrator 19.0.0, SVG Export Plug-In . SVG Version: 6.00 Build 0)  -->
<svg version="1.1" id="Layer_1" xmlns="http://www.w3.org/2000/svg" xmlns:xlink="http://www.w3.org/1999/xlink" x="0px" y="0px"
	 viewBox="0 0 512 512" style="enable-background:new 0 0 512 512;" xml:space="preserve">
<g id="Others">
</g>
<g id="Design">
</g>
<g id="SEO_x2F__Web">
</g>
<g id="Finance__x2F__Money">
</g>
<g id="E-Commerce__x2F__Shopping">
</g>
<g id="Strategy">
	<g id="graph_board">
		
			<radialGradient id="SVGID_1_" cx="256" cy="258" r="256" gradientTransform="matrix(1 0 0 -1 0 514)" gradientUnits="userSpaceOnUse">
			<stop  offset="0.0051" style="stop-color:#33495F"/>
			<stop  offset="1" style="stop-color:#2B3E51"/>
		</radialGradient>
		<circle style="fill:url(#SVGID_1_);" cx="256" cy="256" r="256"/>
		<g>
			<path style="fill:#E87E04;" d="M257.5,423.573c-5.07,0-9.5-4.11-9.5-9.18V95.438c0-5.069,4.43-9.18,9.5-9.18s9.5,4.11,9.5,9.18
				v318.955C267,419.463,262.57,423.573,257.5,423.573z"/>
		</g>
		<g>
			<path style="fill:#E87E04;" d="M182.72,438.786c-1.188,0-2.396-0.232-3.561-0.724c-4.672-1.969-6.863-7.352-4.895-12.023
				l61.5-145.947c1.969-4.674,7.351-6.866,12.024-4.896c4.672,1.969,6.863,7.353,4.895,12.023l-61.5,145.948
				C189.705,436.677,186.302,438.786,182.72,438.786z"/>
		</g>
		<g>
			<path style="fill:#E87E04;" d="M332.079,438.786c-3.583,0-6.985-2.109-8.463-5.618L262.114,287.22
				c-1.968-4.671,0.223-10.055,4.895-12.023c4.671-1.969,10.055,0.222,12.024,4.896l61.5,145.947
				c1.969,4.672-0.223,10.055-4.895,12.023C334.476,438.553,333.267,438.786,332.079,438.786z"/>
		</g>
		<g>
			<path style="fill:#D55400;" d="M257.5,403.379c-5.07,0-9.5-4.11-9.5-9.18V155.438c0-5.069,4.43-9.18,9.5-9.18s9.5,4.11,9.5,9.18
				v238.761C267,399.269,262.57,403.379,257.5,403.379z"/>
		</g>
		<g>
			<path style="fill:#D55400;" d="M197.446,403.84c-1.188,0-2.396-0.232-3.561-0.724c-4.672-1.968-6.863-7.352-4.895-12.022
				l46.774-111.002c1.969-4.673,7.352-6.866,12.024-4.896c4.672,1.969,6.863,7.353,4.895,12.023l-46.775,111.002
				C204.431,401.73,201.027,403.84,197.446,403.84z"/>
		</g>
		<g>
			<path style="fill:#D55400;" d="M317.353,403.839c-3.582,0-6.985-2.109-8.463-5.618L262.114,287.22
				c-1.968-4.671,0.223-10.055,4.895-12.023c4.672-1.972,10.055,0.222,12.024,4.896l46.774,111.001
				c1.969,4.671-0.223,10.055-4.895,12.022C319.749,403.607,318.541,403.839,317.353,403.839z"/>
		</g>
		<rect x="96" y="121" style="fill:#ECF0F1;" width="322" height="245"/>
		<path style="fill:#2C97DE;" d="M433,123.535c0,6.332-5.133,11.465-11.465,11.465H92.465C86.133,135,81,129.867,81,123.535v-0.07
			C81,117.133,86.133,112,92.465,112h329.07c6.332,0,11.465,5.133,11.465,11.465V123.535z"/>
		<polygon style="fill:#BDC3C7;" points="295.875,221.5 218.938,289.5 140.969,237.5 96,253.569 96,366 418,366 418,231.331 
			372.75,257.5 		"/>
		<polygon style="fill:#95A5A6;" points="296,212.5 219,280.5 141,228.5 96,244.571 96,260.569 140.969,244.5 218.938,296.5 
			295.875,228.5 372.75,264.5 418,238.331 418,222.331 372.75,248.5 		"/>
		<circle style="fill:#9C56B8;" cx="141" cy="236.5" r="20"/>
		<circle style="fill:#E94B35;" cx="219" cy="288.5" r="20"/>
		<circle style="fill:#1ECA6B;" cx="296" cy="220.5" r="20"/>
		<circle style="fill:#F2C500;" cx="373" cy="256.5" r="20"/>
		<path style="fill:#227FBB;" d="M433,366.535c0,6.332-5.133,11.465-11.465,11.465H92.465C86.133,378,81,372.867,81,366.535v-0.07
			C81,360.133,86.133,355,92.465,355h329.07c6.332,0,11.465,5.133,11.465,11.465V366.535z"/>
	</g>
</g>
<g>
</g>
<g>
</g>
<g>
</g>
<g>
</g>
<g>
</g>
<g>
</g>
<g>
</g>
<g>
</g>
<g>
</g>
<g>
</g>
<g>
</g>
<g>
</g>
<g>
</g>
<g>
</g>
<g>
</g>
</svg>
